<svg id="OBJECTS" xmlns="http://www.w3.org/2000/svg" xmlns:xlink="http://www.w3.org/1999/xlink" viewBox="0 0 533.03 128.77"><defs><style>.cls-1{fill:url(#Sfumatura_senza_nome_1038);}.cls-2{font-size:70px;fill:#f9f9f9;font-family:Montserrat-ExtraBoldItalic, Montserrat;font-weight:800;font-style:italic;}.cls-3{letter-spacing:-0.01em;}.cls-4{letter-spacing:-0.01em;}.cls-5{letter-spacing:-0.01em;}.cls-6{fill:url(#Sfumatura_senza_nome_1037);}.cls-7{fill:url(#Sfumatura_senza_nome_1038-2);}</style><linearGradient id="Sfumatura_senza_nome_1038" x1="123.12" y1="236.56" x2="509.56" y2="236.56" gradientUnits="userSpaceOnUse"><stop offset="0" stop-color="#f24d60"/><stop offset="1" stop-color="#7d0009"/></linearGradient><linearGradient id="Sfumatura_senza_nome_1037" x1="479.43" y1="366.63" x2="681.54" y2="165.9" gradientUnits="userSpaceOnUse"><stop offset="0" stop-color="#7d0009"/><stop offset="1" stop-color="#f24d60"/></linearGradient><linearGradient id="Sfumatura_senza_nome_1038-2" x1="123.12" y1="307.12" x2="265.41" y2="307.12" xlink:href="#Sfumatura_senza_nome_1038"/></defs><path class="cls-1" d="M381.54,213.71c-9.67,1.7-19.41,3-29.15,4.31s-19.49,2.46-29.26,3.51-19.53,2.1-29.3,3.08-19.55,1.95-29.34,2.78h-.17l-.16,0-26.31-7.21-2.81-.77,2.7-1.11c9.15-3.76,18.3-7.54,27.54-11.13,4.63-1.79,9.27-3.53,14-5.15s9.45-3.11,14.26-4.39,9.66-2.38,14.55-3.29,9.81-1.65,14.73-2.25a224.44,224.44,0,0,1,29.76-1.53c9.93.07,19.84.66,29.71,1.55,4.94.45,9.87,1,14.79,1.64l1.84.26c.65.1,1.26.24,1.87.38,1.23.28,2.43.6,3.63.93,2.39.65,4.77,1.36,7.14,2.08,4.73,1.46,9.45,3,14.13,4.61,2.34.82,4.67,1.66,7,2.54,1.16.44,2.31.9,3.46,1.39.57.24,1.14.49,1.71.77.28.13.56.28.84.44a4.94,4.94,0,0,1,.42.27,1.86,1.86,0,0,1,.22.19.88.88,0,0,1,.12.15.61.61,0,0,1,.07.14.34.34,0,0,1,0,.21c-.05.22-.1.2-.14.25l-.12.13a1.28,1.28,0,0,1-.23.15c-.15.1-.29.17-.43.25-.29.15-.57.27-.86.4-.58.25-1.15.48-1.74.7-1.16.44-2.32.86-3.49,1.27-2.35.81-4.7,1.58-7.06,2.33-4.71,1.51-9.45,2.94-14.19,4.34q7-2.28,14.07-4.71c2.34-.8,4.67-1.62,7-2.48,1.16-.42,2.31-.86,3.46-1.33.57-.23,1.13-.47,1.69-.72.27-.13.56-.26.81-.4a3.28,3.28,0,0,0,.37-.22c.05,0,.14-.08.15-.11l.05,0s0-.06,0,.08a.41.41,0,0,0,0,.09.06.06,0,0,0,0,0l0,0-.13-.11-.36-.22c-.26-.14-.54-.27-.81-.4-.55-.26-1.12-.49-1.69-.72-1.14-.46-2.3-.88-3.46-1.3-2.32-.83-4.66-1.62-7-2.39-4.71-1.52-9.42-3-14.16-4.38-2.37-.7-4.75-1.37-7.14-2-1.19-.31-2.38-.61-3.57-.87-.6-.13-1.2-.25-1.78-.34l-1.83-.23c-4.89-.59-9.81-1.06-14.74-1.45s-9.85-.69-14.78-.89-9.87-.34-14.8-.37A224.94,224.94,0,0,0,323,194.05c-4.9.62-9.76,1.4-14.61,2.29s-9.62,2-14.37,3.32c-9.49,2.61-18.79,5.93-28,9.46s-18.38,7.27-27.55,11l-.11-1.87,26.28,7.31-.33,0L293.68,223q14.67-1.29,29.33-2.71c9.77-1,19.54-1.92,29.3-3S371.82,215.12,381.54,213.71Zm109.89-11.47q-9.06-1.28-18.09-2.67l-36.15-5.51-18.1-2.69c-6-.88-12.08-1.65-18.12-2.5a361.82,361.82,0,0,0-36.48-3.44,265.72,265.72,0,0,0-36.67,1A230.62,230.62,0,0,0,291.7,193c-11.86,3.14-23.32,7.48-34.69,11.87s-22.65,9.09-33.87,13.9l.19-.06c-8.71,1.7-17.34,3.84-25.85,6.36-4.26,1.24-8.47,2.64-12.67,4.08s-8.34,3-12.43,4.75a211.29,211.29,0,0,0-23.95,11.59c-3.86,2.2-7.64,4.52-11.31,7a105,105,0,0,0-10.59,8.08l-.16.15.12.19c1.14,1.83,2.36,3.59,3.58,5.36s2.45,3.53,3.7,5.27q3.73,5.25,7.54,10.44-3.67-5.28-7.3-10.61l-3.6-5.33c-1.18-1.79-2.37-3.58-3.47-5.41l0,.33a103.81,103.81,0,0,1,10.66-7.82c3.7-2.41,7.5-4.65,11.38-6.76a220.26,220.26,0,0,1,23.95-11.24c4.1-1.64,8.25-3.14,12.42-4.58s8.39-2.73,12.64-3.91c8.49-2.41,17.09-4.42,25.75-6.1l.1,0,.1,0q16.8-7.14,33.85-13.75c11.37-4.35,22.77-8.61,34.51-11.67A238.46,238.46,0,0,1,328,188.53a263.16,263.16,0,0,1,36.39-1.16q9.1.33,18.19,1.18c6.05.57,12.09,1.26,18.14,2s12.1,1.48,18.14,2.29L437,195.35l18.11,2.53,18.12,2.45c6,.8,12.09,1.59,18.14,2.33s12.11,1.44,18.19,1.93C503.5,204,497.46,203.09,491.43,202.24ZM156.8,271.57l5.95,6.25.69.74,0,0h0s0,.06-.08-.29a.83.83,0,0,1,.21-.61l0,0,.07-.06h0l-.08,0-.45.19c-.65.26-1.33.5-2,.74L157.15,280c-2.72.92-5.46,1.77-8.2,2.63s-5.5,1.63-8.26,2.25c-.68.15-1.37.29-2,.37-.32,0-.64,0-1,.05s-.69,0-1,0c-1.4,0-2.82-.17-4.24-.32-2.83-.33-5.67-.8-8.48-1.33l.38.64a5.1,5.1,0,0,1,1-1.75,10.64,10.64,0,0,1,1.47-1.53l-.09.05c2.45-1,4.88-2,7.31-3.06q-3.79,1.15-7.56,2.38l0,0,0,0a10.87,10.87,0,0,0-1.71,1.54,5.86,5.86,0,0,0-1.26,2l-.16.5.54.14c2.81.72,5.64,1.31,8.52,1.76,1.44.22,2.89.4,4.36.48.37,0,.74,0,1.12,0a9,9,0,0,0,1.15,0c.77-.07,1.5-.19,2.23-.33,2.88-.57,5.65-1.39,8.43-2.2s5.52-1.74,8.25-2.68c1.36-.48,2.73-1,4.08-1.47.68-.26,1.36-.53,2-.82l.54-.24.16-.08.11-.07.12-.1.06-.06a.86.86,0,0,0,.23-.64c-.06-.36-.11-.33-.09-.32l0,0,0,0-.07-.09-.14-.17-.23-.25-.2-.19-.38-.39c-2-2-4.12-4-6.19-6-4.17-4-8.36-7.94-12.66-11.79C148.89,263.18,152.84,267.38,156.8,271.57Zm5.82,15.87,7.47.16q7.47.18,14.95.29h.86l-.25-.87A54.58,54.58,0,0,1,184,277.9a64.19,64.19,0,0,1-.26-9.3l.15-2.32.24-2.32a32.37,32.37,0,0,1,.87-4.49,36.79,36.79,0,0,1,3.44-8.49,39.17,39.17,0,0,1,5.44-7.35c.51-.57,1.1-1.06,1.65-1.59l.83-.78c.29-.25.6-.47.9-.71l1.82-1.39L201,238c.32-.19.64-.41,1-.59l1-.5,2.05-1,2.15-.8,1.07-.4c.36-.12.74-.2,1.11-.3l2.22-.57c.73-.2,1.5-.25,2.26-.39s1.51-.25,2.27-.32l2.3-.12a34.6,34.6,0,0,1,17.77,3.59,36,36,0,0,1,13.47,12.28,37.28,37.28,0,0,1,4.14,8.25,43.57,43.57,0,0,1,1.79,9.12,74.14,74.14,0,0,1-.88,18.74,69.46,69.46,0,0,0,1.79-18.81A41.12,41.12,0,0,0,255,256.7a38.34,38.34,0,0,0-17.91-21.85,35.93,35.93,0,0,0-18.74-4l-2.42.11c-.8.07-1.6.22-2.4.33s-1.6.19-2.38.4l-2.36.59c-.39.11-.78.19-1.17.31l-1.14.42-2.28.84c-.74.34-1.46.71-2.19,1.07l-1.09.54c-.35.2-.69.43-1,.64l-2.06,1.29-1.93,1.49c-.31.26-.65.49-.95.76l-.89.83c-.57.57-1.2,1.09-1.74,1.69L190.72,244c-.55.6-1,1.28-1.48,1.92l-.72,1c-.22.33-.43.68-.64,1-.42.7-.87,1.37-1.25,2.09a38.66,38.66,0,0,0-3.51,9,35.06,35.06,0,0,0-.86,4.77c-.07.79-.15,1.59-.2,2.38l-.1,2.4a64.67,64.67,0,0,0,.48,9.54,51.49,51.49,0,0,0,2,9.36l.62-.85c-5,.06-10,.17-14.95.28l-7.47.16-7.47.21Zm-2-44.53c-2.6,1.17-5.14,2.44-7.66,3.76s-5,2.71-7.47,4.13c-1.23.71-2.45,1.45-3.66,2.2s-2.4,1.47-3.64,2.32l-2.6,1.77,3.14-.48,8.81-1.33c2.93-.48,5.86-.94,8.79-1.44s5.85-1,8.77-1.56l4.38-.85c1.45-.29,2.92-.57,4.35-1-2.94.4-5.89.74-8.84,1.08l-8.83,1.14-8.83,1.2-8.81,1.28.53,1.3c2.27-1.54,4.74-3,7.14-4.51s4.85-2.91,7.3-4.32,4.93-2.8,7.43-4.11,5-2.59,7.63-3.78C165.88,240.66,163.26,241.77,160.65,242.91Zm105.47-23.69,0,.5a33.85,33.85,0,0,1,7.69-4.65,7.18,7.18,0,0,1,2.05-.48c.32-.05.72,0,1.08,0s.75,0,1.12,0c1.51,0,3,.16,4.55.25l9.14.73c3.06.23,6.11.46,9.18.6-3-.67-6-1.19-9.06-1.66-1.52-.22-3-.44-4.56-.61s-3.05-.35-4.59-.48-3.07-.24-4.63-.26h-1.17a10.17,10.17,0,0,0-1.21.07,8,8,0,0,0-2.39.65,21.07,21.07,0,0,0-4.07,2.38,35.2,35.2,0,0,0-3.56,3l-.3.29.32.21c1.28.86,2.57,1.71,3.88,2.53C268.47,221.22,267.3,220.21,266.12,219.22Zm98.48-20.68c.57,1.58,1.19,3.15,1.8,4.71l1.85,4.69c.31.78.62,1.56.9,2.35s.58,1.57.86,2.37a31.77,31.77,0,0,0-1.23-4.91c-.51-1.61-1.1-3.19-1.71-4.76s-1.26-3.12-2-4.66-1.4-3.06-2.2-4.55C363.43,195.39,364,197,364.6,198.54Z" transform="translate(-123.12 -185.22)"/><text class="cls-2" transform="translate(161.26 101.69)"><tspan class="cls-3">A</tspan><tspan class="cls-4" x="53.97" y="0">U</tspan><tspan class="cls-5" x="108.22" y="0">T</tspan><tspan x="151.97" y="0">O</tspan></text><path class="cls-6" d="M526.58,287.89a29.32,29.32,0,0,1-13.06-2.73,20.24,20.24,0,0,1-8.57-7.6,20.87,20.87,0,0,1-3-11.23,30.2,30.2,0,0,1,2.24-11.76,27.66,27.66,0,0,1,6.3-9.35,28.08,28.08,0,0,1,9.69-6.12,34.46,34.46,0,0,1,12.5-2.17,28.85,28.85,0,0,1,12,2.38,16.65,16.65,0,0,1,7.84,6.86l-10,8a11.42,11.42,0,0,0-4.38-4.27,13.16,13.16,0,0,0-6.4-1.47,16.14,16.14,0,0,0-6.48,1.26,14.5,14.5,0,0,0-5,3.57,15.87,15.87,0,0,0-3.22,5.42,19.77,19.77,0,0,0-1.12,6.76,11.38,11.38,0,0,0,1.43,5.77A9.74,9.74,0,0,0,521.5,275a14,14,0,0,0,6.41,1.37,15.77,15.77,0,0,0,6.33-1.33,16.05,16.05,0,0,0,5.64-4.34l8.19,8.05a23.1,23.1,0,0,1-9.52,7A33.2,33.2,0,0,1,526.58,287.89Z" transform="translate(-123.12 -185.22)"/><path class="cls-6" d="M544.78,286.91l31.43-49h13.65l11.83,49H587.9l-8.75-42.42h5.46l-25.2,42.42Zm13.72-9.52,5.6-10.22H588l1.54,10.22Z" transform="translate(-123.12 -185.22)"/><path class="cls-6" d="M605.68,286.91l9.8-49h20.93q9.45,0,14.59,4.13t5.15,11.48a19.23,19.23,0,0,1-3,10.74,19.46,19.46,0,0,1-8.43,7.11,30.51,30.51,0,0,1-12.88,2.52H616l7.35-5.95-3.78,19ZM623,269.55l-4.83-6.37h14.35c3.08,0,5.46-.73,7.14-2.17a7.69,7.69,0,0,0,2.52-6.16,5.24,5.24,0,0,0-2-4.55,9.53,9.53,0,0,0-5.67-1.47H621.08l7.42-6.58Zm13.44,17.36-10-17.85h14.35l10.15,17.85Z" transform="translate(-123.12 -185.22)"/><text x="-123.12" y="-185.22"/><path class="cls-7" d="M265.41,307.12c-11.86.29-23.71.43-35.57.54l-35.58.17-35.57-.17-17.79-.19-17.78-.35,17.78-.35,17.79-.19,35.57-.16,35.58.16C241.7,306.69,253.55,306.83,265.41,307.12Z" transform="translate(-123.12 -185.22)"/></svg>